<?xml version="1.0" standalone="no"?>
<!DOCTYPE svg PUBLIC "-//W3C//DTD SVG 20010904//EN"
 "http://www.w3.org/TR/2001/REC-SVG-20010904/DTD/svg10.dtd">
<svg version="1.0" xmlns="http://www.w3.org/2000/svg"
 width="220.000000pt" height="220.000000pt" viewBox="0 0 220.000000 220.000000"
 preserveAspectRatio="xMidYMid meet">
<metadata>
Created by potrace 1.14, written by Peter Selinger 2001-2017
</metadata>
<g transform="translate(0.000000,220.000000) scale(0.100000,-0.100000)"
fill="#000000" stroke="none">
<path d="M950 2058 c-724 -39 -736 -40 -776 -63 -54 -32 -74 -75 -74 -162 0
-37 18 -417 41 -843 40 -764 41 -776 64 -816 31 -53 75 -74 157 -74 34 0 412
18 838 40 739 39 777 42 819 63 59 30 81 73 81 157 0 36 -18 416 -41 845 -40
769 -41 781 -64 821 -36 61 -72 74 -202 73 -59 -1 -439 -19 -843 -41z m90
-868 c0 -253 -8 -310 -50 -368 -44 -61 -106 -86 -215 -87 -83 0 -95 3 -145 31
-65 37 -107 96 -116 167 l-7 47 97 0 c74 0 96 -3 96 -14 0 -7 9 -25 21 -40 23
-29 63 -35 95 -12 18 13 19 30 22 260 l3 246 99 0 100 0 0 -230z m640 150 l0
-80 -90 0 -90 0 0 -260 0 -260 -100 0 -100 0 0 260 0 260 -90 0 -90 0 0 80 0
80 280 0 280 0 0 -80z"/>
</g>
</svg>
